<svg width="91" height="91" viewBox="0 0 91 91" fill="none" xmlns="http://www.w3.org/2000/svg">
<path d="M45.5002 82.8923C66.2503 82.8923 83.0716 75.3228 83.0716 65.9852C83.0716 61.2262 78.7023 56.9265 71.6703 53.854C67.3793 61.7284 60.8358 68.5157 52.5242 72.0676C48.0566 73.9768 42.9437 73.9768 38.4761 72.0676C30.1645 68.5157 23.6211 61.7284 19.3301 53.854C12.2981 56.9265 7.92871 61.2262 7.92871 65.9852C7.92871 75.3228 24.75 82.8923 45.5002 82.8923Z" fill="#AF53AF"/>
<path fill-rule="evenodd" clip-rule="evenodd" d="M19.2001 32.2247C19.2001 18.7068 30.9751 7.74829 45.5002 7.74829C60.0253 7.74829 71.8002 18.7068 71.8002 32.2247C71.8002 45.6368 63.4061 61.2874 50.3096 66.8841C47.2565 68.1888 43.7438 68.1888 40.6908 66.8841C27.5942 61.2874 19.2001 45.6368 19.2001 32.2247ZM45.5002 41.5626C49.6502 41.5626 53.0145 38.1984 53.0145 34.0483C53.0145 29.8983 49.6502 26.534 45.5002 26.534C41.3501 26.534 37.9859 29.8983 37.9859 34.0483C37.9859 38.1984 41.3501 41.5626 45.5002 41.5626Z" fill="#AF53AF"/>
</svg>
