<svg width="91" height="91" viewBox="0 0 91 91" fill="none" xmlns="http://www.w3.org/2000/svg">
<path d="M38.7348 29.8139C42.7676 22.5796 44.7839 18.9624 47.7985 18.9624C50.8131 18.9624 52.8295 22.5796 56.8622 29.8139L57.9056 31.6855C59.0515 33.7413 59.6245 34.7692 60.5179 35.4474C61.4113 36.1256 62.524 36.3774 64.7494 36.8809L66.7754 37.3393C74.6064 39.1112 78.522 39.9971 79.4536 42.9927C80.3851 45.9884 77.7158 49.1099 72.377 55.3528L70.9958 56.9679C69.4787 58.742 68.7202 59.629 68.379 60.7264C68.0377 61.8237 68.1524 63.0072 68.3817 65.3742L68.5906 67.5291C69.3977 75.8585 69.8013 80.0232 67.3624 81.8747C64.9235 83.7261 61.2574 82.0381 53.9252 78.6621L52.0282 77.7887C49.9446 76.8293 48.9028 76.3496 47.7985 76.3496C46.6942 76.3496 45.6524 76.8293 43.5688 77.7887L41.6719 78.6621C34.3396 82.0381 30.6735 83.7261 28.2347 81.8747C25.7958 80.0232 26.1994 75.8585 27.0065 67.5291L27.2153 65.3742C27.4447 63.0072 27.5594 61.8237 27.2181 60.7264C26.8769 59.629 26.1183 58.742 24.6012 56.9679L23.22 55.3528C17.8813 49.1099 15.2119 45.9884 16.1435 42.9927C17.0751 39.9971 20.9906 39.1112 28.8217 37.3393L30.8477 36.8809C33.0731 36.3774 34.1857 36.1256 35.0791 35.4474C35.9725 34.7692 36.5455 33.7413 37.6915 31.6855L38.7348 29.8139Z" fill="#AF53AF"/>
<path d="M19.2092 9.60045C19.3215 9.20423 20.0248 9.20186 20.1398 9.59731C20.665 11.4031 21.6387 14.0723 23.1112 15.5349C24.5837 16.9975 27.2595 17.9532 29.0688 18.4661C29.465 18.5785 29.4674 19.2818 29.0719 19.3968C27.2661 19.9219 24.5969 20.8957 23.1343 22.3682C21.6717 23.8407 20.716 26.5164 20.2031 28.3257C20.0908 28.7219 19.3875 28.7243 19.2724 28.3289C18.7473 26.5231 17.7735 23.8539 16.301 22.3913C14.8285 20.9287 12.1528 19.973 10.3435 19.46C9.94728 19.3477 9.9449 18.6444 10.3404 18.5294C12.1462 18.0043 14.8154 17.0305 16.278 15.558C17.7405 14.0855 18.6962 11.4098 19.2092 9.60045Z" fill="#AF53AF"/>
<path fill-rule="evenodd" clip-rule="evenodd" d="M72.1451 12.4076C73.6965 12.4076 74.9543 13.6653 74.9543 15.2168V16.1532H75.8907C77.4422 16.1532 78.6999 17.411 78.6999 18.9624C78.6999 20.5139 77.4422 21.7717 75.8907 21.7717H74.9543V22.7081C74.9543 24.2596 73.6965 25.5173 72.1451 25.5173C70.5936 25.5173 69.3358 24.2596 69.3358 22.7081V21.7717H68.3994C66.8479 21.7717 65.5902 20.5139 65.5902 18.9624C65.5902 17.411 66.8479 16.1532 68.3994 16.1532H69.3358V15.2168C69.3358 13.6653 70.5936 12.4076 72.1451 12.4076Z" fill="#AF53AF"/>
</svg>
