<svg width="97" height="77" viewBox="0 0 97 77" fill="none" xmlns="http://www.w3.org/2000/svg">
<path d="M8.12305 0.27868H14.8172V34.2344H8.12305V0.27868ZM18.2493 0.27868H24.9435V34.2344H18.2493V0.27868ZM28.3756 0.27868H35.0698V34.2344H28.3756V0.27868ZM69.8468 34.2344H62.5705L53.7421 23.223V34.2344H47.4845V9.98031H53.7421V20.6521L62.0855 9.98031H69.5557L59.8056 21.9618L69.8468 34.2344ZM87.5797 21.8163C89.8434 22.9158 90.9753 24.7591 90.9753 27.3462C90.9753 29.3836 90.28 31.049 88.8894 32.3426C87.4989 33.6038 85.4939 34.2344 82.8744 34.2344H70.1168V9.98031H81.9043C84.459 9.98031 86.4317 10.6109 87.8223 11.8721C89.2452 13.1333 89.9566 14.7826 89.9566 16.82C89.9566 18.9543 89.1643 20.6198 87.5797 21.8163ZM75.9863 15.1222V19.4879H81.3222C83.1008 19.4879 83.9901 18.7603 83.9901 17.305C83.9901 15.8498 83.1008 15.1222 81.3222 15.1222H75.9863ZM82.1468 28.947C83.9578 28.947 84.8633 28.1709 84.8633 26.6186C84.8633 25.9395 84.6207 25.4059 84.1357 25.0178C83.6506 24.6298 82.9876 24.4357 82.1468 24.4357H75.9863V28.947H82.1468ZM0.726166 76.2344V71.238L12.3196 59.305C14.9067 56.5562 16.2003 54.2925 16.2003 52.5139C16.2003 51.1557 15.7799 50.0885 14.9391 49.3124C14.1306 48.5039 13.0796 48.0997 11.786 48.0997C9.19892 48.0997 7.3071 49.4255 6.11057 52.0773L0.483626 48.7788C1.5508 46.4504 3.07073 44.6717 5.04339 43.4429C7.04839 42.214 9.2636 41.5996 11.689 41.5996C14.7612 41.5996 17.3968 42.5697 19.5958 44.5101C21.7949 46.418 22.8944 49.0051 22.8944 52.2714C22.8944 55.7963 21.0349 59.4182 17.3159 63.1372L10.6703 69.7828H23.428V76.2344H0.726166ZM37.1393 76.9135C32.9029 76.9135 29.5721 75.3127 27.1466 72.1112C24.7536 68.845 23.557 64.5601 23.557 59.2565C23.557 53.953 24.7536 49.6843 27.1466 46.4504C29.5721 43.2165 32.9029 41.5996 37.1393 41.5996C41.4404 41.5996 44.7713 43.2165 47.132 46.4504C49.5251 49.6843 50.7216 53.953 50.7216 59.2565C50.7216 64.5601 49.5251 68.845 47.132 72.1112C44.7389 75.3127 41.408 76.9135 37.1393 76.9135ZM44.076 59.2565C44.076 55.6346 43.4777 52.8696 42.2812 50.9616C41.117 49.0536 39.403 48.0997 37.1393 48.0997C34.8756 48.0997 33.1617 49.0536 31.9975 50.9616C30.8333 52.8696 30.2512 55.6346 30.2512 59.2565C30.2512 62.8785 30.8333 65.6434 31.9975 67.5514C33.1617 69.4271 34.8756 70.3649 37.1393 70.3649C39.403 70.3649 41.117 69.4271 42.2812 67.5514C43.4777 65.6434 44.076 62.8785 44.076 59.2565ZM50.0173 76.2344V71.238L61.6108 59.305C64.1979 56.5562 65.4914 54.2925 65.4914 52.5139C65.4914 51.1557 65.071 50.0885 64.2302 49.3124C63.4217 48.5039 62.3707 48.0997 61.0772 48.0997C58.4901 48.0997 56.5983 49.4255 55.4017 52.0773L49.7748 48.7788C50.842 46.4504 52.3619 44.6717 54.3345 43.4429C56.3395 42.214 58.5548 41.5996 60.9802 41.5996C64.0523 41.5996 66.6879 42.5697 68.887 44.5101C71.086 46.418 72.1855 49.0051 72.1855 52.2714C72.1855 55.7963 70.3261 59.4182 66.6071 63.1372L59.9615 69.7828H72.7191V76.2344H50.0173ZM84.5906 54.6483C87.8891 54.6483 90.6379 55.6346 92.837 57.6073C95.0683 59.5476 96.184 62.264 96.184 65.7566C96.184 69.2492 95.0037 71.9818 92.6429 73.9545C90.3469 75.9272 87.4849 76.9135 84.057 76.9135C81.3082 76.9135 78.8828 76.3152 76.7808 75.1187C74.6787 73.8898 73.1588 72.0627 72.221 69.6373L77.945 66.2902C78.7534 69.0067 80.7908 70.3649 84.057 70.3649C85.8033 70.3649 87.1453 69.9607 88.0832 69.1522C89.021 68.3437 89.4899 67.2119 89.4899 65.7566C89.4899 64.3661 89.021 63.2504 88.0832 62.4096C87.1777 61.5687 85.9003 61.1483 84.251 61.1483H73.9673L75.3255 42.2787H94.5833V48.5362H81.5346L81.098 54.6483H84.5906Z" fill="#AF53AF"/>
</svg>
