<svg width="90" height="91" viewBox="0 0 90 91" fill="none" xmlns="http://www.w3.org/2000/svg">
<path fill-rule="evenodd" clip-rule="evenodd" d="M56.2282 7.72546H63.7195C70.7823 7.72546 74.3137 7.72546 76.5079 9.9196C78.702 12.1137 78.702 15.6452 78.702 22.708V79.8288H82.4476C83.9991 79.8288 85.2568 81.0865 85.2568 82.638C85.2568 84.1895 83.9991 85.4473 82.4476 85.4473H7.53505C5.98356 85.4473 4.72583 84.1895 4.72583 82.638C4.72583 81.0865 5.98356 79.8288 7.53505 79.8288H11.2807V33.9449C11.2807 26.882 11.2807 23.3506 13.4748 21.1565C15.669 18.9623 19.2004 18.9623 26.2632 18.9623H41.2457C48.3085 18.9623 51.8399 18.9623 54.0341 21.1565C56.2282 23.3506 56.2282 26.882 56.2282 33.9449V79.8288H61.8467V33.9449L61.8467 33.6097C61.8471 30.3673 61.8474 27.3945 61.5223 24.9763C61.1643 22.3133 60.3219 19.4986 58.0069 17.1837C55.692 14.8687 52.8773 14.0263 50.2143 13.6683C47.8301 13.3477 44.9068 13.3436 41.7177 13.3439C42.0334 11.8934 42.5604 10.7991 43.4398 9.9196C45.634 7.72546 49.1654 7.72546 56.2282 7.72546ZM19.7083 30.1992C19.7083 28.6477 20.9661 27.39 22.5176 27.39H44.9913C46.5428 27.39 47.8006 28.6477 47.8006 30.1992C47.8006 31.7507 46.5428 33.0085 44.9913 33.0085H22.5176C20.9661 33.0085 19.7083 31.7507 19.7083 30.1992ZM19.7083 41.4361C19.7083 39.8846 20.9661 38.6269 22.5176 38.6269H44.9913C46.5428 38.6269 47.8006 39.8846 47.8006 41.4361C47.8006 42.9876 46.5428 44.2453 44.9913 44.2453H22.5176C20.9661 44.2453 19.7083 42.9876 19.7083 41.4361ZM19.7083 52.673C19.7083 51.1215 20.9661 49.8638 22.5176 49.8638H44.9913C46.5428 49.8638 47.8006 51.1215 47.8006 52.673C47.8006 54.2245 46.5428 55.4822 44.9913 55.4822H22.5176C20.9661 55.4822 19.7083 54.2245 19.7083 52.673ZM33.7545 68.5919C35.3059 68.5919 36.5637 69.8497 36.5637 71.4011V79.8288H30.9452V71.4011C30.9452 69.8497 32.203 68.5919 33.7545 68.5919Z" fill="#AF53AF"/>
</svg>
