<svg width="38" height="38" viewBox="0 0 38 38" fill="none" xmlns="http://www.w3.org/2000/svg">
<path d="M15.4555 18.6055C15.4555 20.5232 17.0101 22.0778 18.9278 22.0778C20.8455 22.0778 22.4001 20.5232 22.4001 18.6055C22.4001 16.6878 20.8455 15.1332 18.9278 15.1332C17.0101 15.1332 15.4555 16.6878 15.4555 18.6055Z" fill="black"/>
<path fill-rule="evenodd" clip-rule="evenodd" d="M6.23871 28.3679C7.79569 29.4083 9.96313 29.4083 14.298 29.4083L23.5575 29.4083C27.8924 29.4083 30.0599 29.4083 31.6168 28.3679C32.2909 27.9176 32.8696 27.3388 33.32 26.6648C34.3603 25.1078 34.3603 22.9404 34.3603 18.6055C34.3603 14.2706 34.3603 12.1032 33.32 10.5462C32.8696 9.87217 32.2909 9.29345 31.6168 8.84307C30.0599 7.80273 27.8924 7.80273 23.5575 7.80273H14.298C9.96313 7.80273 7.79569 7.80273 6.23871 8.84308C5.56468 9.29345 4.98595 9.87217 4.53558 10.5462C3.49524 12.1032 3.49524 14.2706 3.49524 18.6055C3.49524 22.9404 3.49524 25.1078 4.53558 26.6648C4.98595 27.3388 5.56468 27.9176 6.23871 28.3679ZM18.9278 24.3927C15.7316 24.3927 13.1406 21.8017 13.1406 18.6055C13.1406 15.4093 15.7316 12.8183 18.9278 12.8183C22.124 12.8183 24.715 15.4093 24.715 18.6055C24.715 21.8017 22.124 24.3927 18.9278 24.3927ZM8.89663 24.3927C8.25739 24.3927 7.73919 23.8745 7.73919 23.2353L7.73919 13.9757C7.73919 13.3365 8.25739 12.8183 8.89663 12.8183C9.53586 12.8183 10.0541 13.3365 10.0541 13.9757L10.0541 23.2353C10.0541 23.8745 9.53586 24.3927 8.89663 24.3927ZM27.8015 23.2353C27.8015 23.8745 28.3197 24.3927 28.9589 24.3927C29.5982 24.3927 30.1164 23.8745 30.1164 23.2353V13.9757C30.1164 13.3365 29.5982 12.8183 28.9589 12.8183C28.3197 12.8183 27.8015 13.3365 27.8015 13.9757V23.2353Z" fill="black"/>
</svg>
