<svg width="38" height="38" viewBox="0 0 38 38" fill="none" xmlns="http://www.w3.org/2000/svg">
<path d="M19.1296 34.2977C27.6528 34.2977 34.5621 31.1884 34.5621 27.353C34.5621 25.3983 32.7674 23.6321 29.879 22.3701C28.1165 25.6045 25.4287 28.3924 22.0147 29.8514C20.1797 30.6356 18.0795 30.6356 16.2445 29.8514C12.8305 28.3924 10.1427 25.6045 8.38021 22.3701C5.49181 23.6321 3.69708 25.3983 3.69708 27.353C3.69708 31.1884 10.6065 34.2977 19.1296 34.2977Z" fill="black"/>
<path fill-rule="evenodd" clip-rule="evenodd" d="M8.32684 13.4859C8.32684 7.93334 13.1634 3.43213 19.1296 3.43213C25.0958 3.43213 29.9324 7.93334 29.9324 13.4859C29.9324 18.9949 26.4845 25.4234 21.1051 27.7223C19.851 28.2582 18.4082 28.2582 17.1542 27.7223C11.7747 25.4234 8.32684 18.9949 8.32684 13.4859ZM19.1296 17.3214C20.8342 17.3214 22.2161 15.9395 22.2161 14.2349C22.2161 12.5303 20.8342 11.1484 19.1296 11.1484C17.425 11.1484 16.0431 12.5303 16.0431 14.2349C16.0431 15.9395 17.425 17.3214 19.1296 17.3214Z" fill="black"/>
</svg>
