<svg width="38" height="38" viewBox="0 0 38 38" fill="none" xmlns="http://www.w3.org/2000/svg">
<path fill-rule="evenodd" clip-rule="evenodd" d="M4.86366 19.3483C5.32083 19.806 5.32038 20.5477 4.86265 21.0049L4.62245 21.2448C4.41727 21.4497 4.41727 21.7813 4.62245 21.9863C4.82841 22.192 5.16294 22.192 5.3689 21.9863L8.01114 19.3473C8.46887 18.8901 9.21055 18.8906 9.66773 19.3483C10.1249 19.806 10.1245 20.5477 9.66672 21.0049L7.02448 23.6439C5.90384 24.7631 4.08751 24.7631 2.96687 23.6439C1.84544 22.5238 1.84544 20.7072 2.96687 19.5872L3.20707 19.3473C3.6648 18.8901 4.40648 18.8906 4.86366 19.3483ZM12.445 20.9043C12.9024 21.3617 12.9024 22.1034 12.445 22.5609L9.13871 25.8671C8.68126 26.3245 7.93958 26.3245 7.48212 25.8671C7.02467 25.4096 7.02467 24.668 7.48212 24.2105L10.7884 20.9043C11.2459 20.4468 11.9875 20.4468 12.445 20.9043ZM16.7802 25.2342C17.2377 25.6916 17.2377 26.4333 16.7802 26.8908L13.4966 30.1744C13.0391 30.6318 12.2974 30.6318 11.84 30.1744C11.3825 29.7169 11.3825 28.9753 11.84 28.5178L15.1236 25.2342C15.5811 24.7767 16.3228 24.7767 16.7802 25.2342ZM11.844 25.8524C12.2963 26.315 12.288 27.0566 11.8255 27.5089L9.15543 30.1202C8.69292 30.5725 7.95128 30.5643 7.49895 30.1018C7.04661 29.6393 7.05486 28.8976 7.51738 28.4453L10.1875 25.834C10.65 25.3817 11.3916 25.3899 11.844 25.8524ZM18.3008 28.0471C18.758 28.5048 18.7575 29.2465 18.2998 29.7036L15.6576 32.3426C15.4524 32.5476 15.4524 32.8792 15.6576 33.0841C15.8635 33.2899 16.1981 33.2899 16.404 33.0841L16.6442 32.8442C17.102 32.3871 17.8436 32.3875 18.3008 32.8452C18.758 33.303 18.7575 34.0446 18.2998 34.5018L18.0596 34.7417C16.939 35.861 15.1226 35.861 14.002 34.7417C12.8806 33.6217 12.8806 31.8051 14.002 30.685L16.6442 28.0461C17.102 27.5889 17.8436 27.5893 18.3008 28.0471Z" fill="white"/>
<path d="M17.3212 8.43398L13.945 11.8C13.3244 12.4187 12.7551 12.9862 12.3056 13.4992C12.0169 13.8287 11.7284 14.1893 11.484 14.5878L11.4511 14.555C11.3887 14.4927 11.3574 14.4615 11.326 14.4311C10.7392 13.8617 10.0489 13.4091 9.29217 13.0973C9.25173 13.0806 9.21068 13.0643 9.1286 13.0318L8.62592 12.8326C7.94493 12.5628 7.76343 11.6861 8.28161 11.1695C9.76875 9.6869 11.5543 7.9068 12.416 7.54927C13.1759 7.23396 13.9969 7.12904 14.7887 7.24605C15.5141 7.35326 16.2004 7.72591 17.3212 8.43398Z" fill="black"/>
<path d="M23.086 26.1569C23.358 26.433 23.5387 26.6281 23.7021 26.8364C23.9176 27.1115 24.1103 27.4036 24.2783 27.7098C24.4674 28.0545 24.6142 28.4228 24.9078 29.1593C25.1468 29.7589 25.9409 29.9174 26.4021 29.4576L26.5136 29.3463C28.0007 27.8637 29.7862 26.0835 30.1448 25.2244C30.4611 24.4667 30.5663 23.6483 30.449 22.8589C30.3414 22.1357 29.9678 21.4516 29.2577 20.3344L25.8703 23.7117C25.2356 24.3445 24.6537 24.9246 24.1274 25.3792C23.8121 25.6515 23.467 25.9238 23.086 26.1569Z" fill="black"/>
<path fill-rule="evenodd" clip-rule="evenodd" d="M24.5065 22.2589L32.2685 14.5202C33.3864 13.4057 33.9453 12.8485 34.2397 12.1399C34.5341 11.4313 34.5341 10.6432 34.5341 9.0671V8.31414C34.5341 5.89051 34.5341 4.6787 33.7789 3.92578C33.0237 3.17285 31.8082 3.17285 29.3773 3.17285H28.6221C27.0412 3.17285 26.2508 3.17285 25.54 3.46637C24.8292 3.75989 24.2703 4.31713 23.1525 5.43161L15.3904 13.1703C14.0842 14.4726 13.2743 15.2801 12.9606 16.06C12.8615 16.3064 12.812 16.5501 12.812 16.8057C12.812 17.8705 13.6715 18.7274 15.3904 20.4412L15.6214 20.6715L18.3277 17.9249C18.7136 17.5332 19.344 17.5286 19.7357 17.9145C20.1274 18.3004 20.1321 18.9308 19.7462 19.3225L17.0317 22.0775L17.2136 22.2589C18.9325 23.9727 19.792 24.8295 20.86 24.8295C21.096 24.8295 21.3218 24.7877 21.5489 24.704C22.3498 24.4091 23.1673 23.594 24.5065 22.2589ZM28.153 13.1709C27.1461 14.1748 25.5135 14.1748 24.5066 13.1709C23.4997 12.167 23.4997 10.5393 24.5066 9.53544C25.5135 8.53154 27.1461 8.53154 28.153 9.53544C29.16 10.5393 29.16 12.167 28.153 13.1709Z" fill="black"/>
</svg>
