<svg width="38" height="38" viewBox="0 0 38 38" fill="none" xmlns="http://www.w3.org/2000/svg">
<path d="M9.50977 7.29514C9.50977 5.8528 9.50977 5.13162 9.8199 4.59445C10.0231 4.24255 10.3153 3.95032 10.6672 3.74715C11.2044 3.43701 11.9255 3.43701 13.3679 3.43701H24.1707C25.613 3.43701 26.3342 3.43701 26.8714 3.74715C27.2233 3.95032 27.5155 4.24255 27.7187 4.59445C28.0288 5.13162 28.0288 5.8528 28.0288 7.29514C28.0288 8.73749 28.0288 9.45867 27.7187 9.99584C27.5155 10.3477 27.2233 10.64 26.8714 10.8431C26.3342 11.1533 25.613 11.1533 24.1707 11.1533H13.3679C11.9255 11.1533 11.2044 11.1533 10.6672 10.8431C10.3153 10.64 10.0231 10.3477 9.8199 9.99584C9.50977 9.45867 9.50977 8.73749 9.50977 7.29514Z" fill="black"/>
<path d="M7.9698 6.42944C7.73109 6.64147 7.58069 6.95072 7.58069 7.29511C7.58069 7.63949 7.73109 7.94875 7.9698 8.16077C7.96647 7.9065 7.96649 7.63775 7.9665 7.35719V7.23303C7.96649 6.95247 7.96647 6.68372 7.9698 6.42944Z" fill="black"/>
<path d="M15.6828 25.0426V31.2156C15.6828 32.6706 15.6828 33.3981 16.1348 33.8501C16.5868 34.3021 17.3143 34.3021 18.7693 34.3021C20.2243 34.3021 20.9518 34.3021 21.4038 33.8501C21.8558 33.3981 21.8558 32.6706 21.8558 31.2156V25.0426C21.8558 23.5876 21.8558 22.8601 21.4038 22.4081C20.9518 21.9561 20.2243 21.9561 18.7693 21.9561C17.3143 21.9561 16.5868 21.9561 16.1348 22.4081C15.6828 22.8601 15.6828 23.5876 15.6828 25.0426Z" fill="black"/>
<path d="M29.5631 8.45258H29.6416C30.3433 8.45258 30.8142 8.45315 31.1792 8.47694C31.5344 8.5001 31.708 8.54171 31.8222 8.58668C32.3203 8.78275 32.7144 9.17693 32.9105 9.67496C32.9555 9.78917 32.9971 9.96278 33.0203 10.318C33.0441 10.683 33.0446 11.1539 33.0446 11.8556C33.0446 13.1478 33.0283 13.5019 32.9345 13.7674C32.7736 14.2231 32.4475 14.6017 32.0207 14.8285C31.772 14.9606 31.4243 15.0293 30.1464 15.221L23.783 16.1755C22.5906 16.3543 21.5896 16.5044 20.7987 16.7268C19.9606 16.9625 19.219 17.3144 18.6402 17.9866C18.0489 18.6731 17.8048 19.4953 17.6997 20.4223C18.0148 20.4127 18.3476 20.4127 18.6853 20.4128H18.8533C19.2622 20.4127 19.6639 20.4126 20.0357 20.4298C20.1129 19.9347 20.2323 19.6853 20.3943 19.4971C20.5632 19.301 20.8225 19.1248 21.4253 18.9553C22.0594 18.777 22.9149 18.6465 24.1985 18.4539L30.6737 17.4828C31.6779 17.333 32.4602 17.2164 33.1069 16.8727C34.0458 16.3739 34.7632 15.5408 35.1172 14.5383C35.3611 13.8478 35.3605 13.0569 35.3596 12.0415L35.3595 11.8184C35.3595 11.1635 35.3595 10.6167 35.3302 10.1674C35.2997 9.69988 35.2341 9.25771 35.0645 8.82693C34.6331 7.73128 33.7659 6.86409 32.6703 6.43272C32.2395 6.26312 31.7973 6.19745 31.3298 6.16697C30.8805 6.13768 30.3337 6.13769 29.6788 6.1377H29.5631C29.5721 6.47517 29.5721 6.84266 29.572 7.23304V7.35724C29.5721 7.74762 29.5721 8.11511 29.5631 8.45258Z" fill="black"/>
</svg>
